<?xml version="1.0" standalone="no"?>
<!DOCTYPE svg PUBLIC "-//W3C//DTD SVG 20010904//EN"
 "http://www.w3.org/TR/2001/REC-SVG-20010904/DTD/svg10.dtd">
<svg version="1.0" xmlns="http://www.w3.org/2000/svg"
 width="36.000000pt" height="36.000000pt" viewBox="0 0 36.000000 36.000000"
 preserveAspectRatio="xMidYMid meet">

<g transform="translate(0.000000,36.000000) scale(0.100000,-0.100000)"
fill="#000000" stroke="none">
<path d="M30 330 c-21 -21 -29 -100 -10 -100 6 0 10 17 10 38 0 21 5 43 12 50
7 7 29 12 50 12 21 0 38 5 38 10 0 19 -79 11 -100 -10z"/>
<path d="M230 340 c0 -5 17 -10 38 -10 48 0 62 -14 62 -62 0 -21 5 -38 10 -38
19 0 11 79 -10 100 -21 21 -100 29 -100 10z"/>
<path d="M72 230 c0 -19 2 -27 5 -17 2 9 2 25 0 35 -3 9 -5 1 -5 -18z"/>
<path d="M110 230 c0 -16 5 -30 10 -30 6 0 10 14 10 30 0 17 -4 30 -10 30 -5
0 -10 -13 -10 -30z"/>
<path d="M162 230 c0 -19 2 -27 5 -17 2 9 2 25 0 35 -3 9 -5 1 -5 -18z"/>
<path d="M200 230 c0 -25 4 -30 25 -30 21 0 25 5 25 30 0 25 -4 30 -25 30 -21
0 -25 -5 -25 -30z"/>
<path d="M282 230 c0 -19 2 -27 5 -17 2 9 2 25 0 35 -3 9 -5 1 -5 -18z"/>
<path d="M72 130 c0 -19 2 -27 5 -17 2 9 2 25 0 35 -3 9 -5 1 -5 -18z"/>
<path d="M110 130 c0 -16 5 -30 10 -30 6 0 10 14 10 30 0 17 -4 30 -10 30 -5
0 -10 -13 -10 -30z"/>
<path d="M162 130 c0 -19 2 -27 5 -17 2 9 2 25 0 35 -3 9 -5 1 -5 -18z"/>
<path d="M200 130 c0 -25 4 -30 25 -30 21 0 25 5 25 30 0 25 -4 30 -25 30 -21
0 -25 -5 -25 -30z"/>
<path d="M282 130 c0 -19 2 -27 5 -17 2 9 2 25 0 35 -3 9 -5 1 -5 -18z"/>
<path d="M10 90 c0 -27 7 -47 20 -60 21 -21 100 -29 100 -10 0 6 -17 10 -38
10 -48 0 -62 14 -62 62 0 21 -4 38 -10 38 -5 0 -10 -18 -10 -40z"/>
<path d="M330 92 c0 -48 -14 -62 -62 -62 -21 0 -38 -4 -38 -10 0 -19 79 -11
100 10 21 21 29 100 10 100 -5 0 -10 -17 -10 -38z"/>
</g>
</svg>
